<svg width="496" height="495" viewBox="0 0 496 495" fill="none" xmlns="http://www.w3.org/2000/svg">
<path d="M422.747 226.358C422.653 225.42 422.721 224.474 422.947 223.557C423.439 221.409 424.57 219.443 426.203 217.895C427.837 216.347 429.905 215.283 432.157 214.831C434.283 214.41 436.489 214.538 438.546 215.2C440.821 215.948 442.814 217.32 444.275 219.146C445.846 221.11 446.716 223.504 446.759 225.975C446.802 228.447 446.014 230.866 444.512 232.879C443.826 233.836 442.983 234.681 442.016 235.382C441.093 236.068 440.066 236.614 438.971 237.003C436.937 237.735 434.735 237.932 432.594 237.576C430.327 237.19 428.225 236.189 426.539 234.692C424.852 233.196 423.653 231.267 423.084 229.136C422.833 228.231 422.736 227.293 422.797 226.358C422.924 227.273 423.103 228.18 423.334 229.076C424.068 231.498 425.627 233.616 427.764 235.096C429.329 236.183 431.154 236.877 433.072 237.117C434.991 237.356 436.941 237.133 438.746 236.467C439.787 236.092 440.763 235.57 441.641 234.917C442.568 234.25 443.377 233.445 444.037 232.533C445.457 230.624 446.2 228.331 446.16 225.989C446.12 223.648 445.297 221.38 443.813 219.516C443.113 218.624 442.271 217.844 441.317 217.203C440.419 216.577 439.426 216.086 438.372 215.749C436.42 215.099 434.322 214.959 432.294 215.343C430.524 215.67 428.86 216.393 427.44 217.453C425.35 218.998 423.865 221.169 423.221 223.616C423.006 224.52 422.847 225.436 422.747 226.358Z" fill="#E0E0E0"/>
<path d="M408.184 220.399C408.057 220.455 407.923 220.495 407.785 220.518L406.537 220.828L401.707 222.02L401.782 221.925C401.844 224.619 401.919 228.172 402.019 232.463L401.894 232.32L408.434 233.595H408.546V233.703C409.21 235.9 410.175 238.005 411.416 239.961L411.479 240.068L411.416 240.164L407.959 245.623V245.349L415.909 252.68H415.597L421.175 249.188L421.313 249.092L421.45 249.176C423.541 250.276 425.773 251.114 428.089 251.667H428.251V251.834C428.75 253.753 429.287 255.863 429.849 258.021L429.562 257.806L440.606 257.628L440.307 257.854C440.731 255.911 441.205 253.777 441.667 251.608V251.441H441.854C444.147 250.816 446.342 249.902 448.381 248.723L448.543 248.627L448.705 248.723L454.409 252.037H454.022L461.697 244.455V244.837L458.04 239.496L457.94 239.341L458.028 239.174C459.192 237.194 460.074 235.073 460.648 232.868V232.689H460.836L467.325 231.187L467.075 231.485C467.013 227.909 466.951 224.405 466.901 220.936L467.15 221.234L460.623 219.922H460.436L460.374 219.744C459.729 217.555 458.781 215.458 457.554 213.509L457.454 213.354L457.554 213.199L461.023 207.751V208.121L453.098 200.778H453.46L447.869 204.271L447.72 204.354L447.57 204.271C445.491 203.16 443.267 202.318 440.956 201.767H440.781V201.612L439.208 195.413L439.483 195.616L428.438 195.771L428.676 195.58C428.189 197.774 427.727 199.824 427.29 201.815V201.946H427.153C424.85 202.563 422.643 203.469 420.589 204.64L420.476 204.712L420.364 204.64L414.761 201.326H414.998L407.285 208.884V208.705L410.892 214.069C409.993 215.585 409.253 217.183 408.683 218.838C408.508 219.362 408.384 219.767 408.284 220.03C408.184 220.292 408.147 220.435 408.147 220.435C408.147 220.435 408.147 220.292 408.234 220.018C408.321 219.744 408.409 219.326 408.583 218.826C409.115 217.17 409.826 215.572 410.705 214.057V214.165C409.706 212.71 408.496 210.97 407.023 208.848L406.961 208.753L407.036 208.681L414.686 201.064L414.798 200.957L414.923 201.04L420.639 204.33H420.427C422.502 203.122 424.74 202.187 427.078 201.553L426.903 201.72C427.34 199.741 427.79 197.678 428.264 195.485V195.294H428.463L439.508 195.104H439.72V195.306C440.244 197.321 440.768 199.371 441.317 201.493L441.105 201.302C443.474 201.858 445.753 202.716 447.882 203.853H447.582L453.161 200.349L453.36 200.229L453.535 200.384L461.485 207.716L461.659 207.883L461.522 208.085L458.065 213.533V213.223C459.328 215.215 460.306 217.36 460.973 219.601L460.723 219.386L467.263 220.697H467.512V220.948C467.579 224.42 467.641 227.933 467.699 231.485V231.736L467.45 231.795L460.96 233.309L461.21 233.083C460.621 235.343 459.723 237.519 458.539 239.556V239.234L462.183 244.574L462.333 244.777L462.146 244.956L454.459 252.537L454.284 252.704L454.072 252.585L448.368 249.259H448.693C446.605 250.467 444.355 251.397 442.004 252.025L442.228 251.81C441.754 253.968 441.28 256.102 440.856 258.045V258.271H440.606L429.562 258.438H429.337V258.224L427.765 252.025L427.964 252.228C425.601 251.656 423.327 250.79 421.2 249.653H421.487L415.884 253.122L415.722 253.229L415.572 253.098L407.647 245.743L407.523 245.623L407.61 245.468L411.092 240.033V240.235C409.848 238.244 408.887 236.103 408.234 233.87L408.371 234.001L401.844 232.678H401.719V232.558C401.719 228.255 401.632 224.703 401.595 222.009V221.925H401.657L406.474 220.852L407.722 220.59L408.184 220.399Z" fill="#E0E0E0"/>
<path fill-rule="evenodd" clip-rule="evenodd" d="M85.1849 191.324C85.838 188.826 86.8324 186.421 88.1426 184.171L84.0618 178.211L92.6478 169.735L99.0374 173.443C101.348 172.114 103.832 171.084 106.425 170.379L107.948 163.406L120.303 163.215L122.075 170.141C124.691 170.759 127.21 171.709 129.563 172.966L135.802 169.068L144.675 177.269L140.832 183.361C142.225 185.566 143.303 187.94 144.039 190.418L151.34 191.872L151.539 203.674L144.289 205.366C143.641 207.866 142.646 210.271 141.331 212.519L145.412 218.479L136.826 226.955L130.436 223.247C128.127 224.578 125.643 225.608 123.048 226.311L121.526 233.285L109.171 233.475L107.399 226.55C104.782 225.931 102.264 224.981 99.9109 223.724L93.6711 227.622L84.7981 219.421L88.6792 213.318C87.2885 211.111 86.21 208.738 85.472 206.26L78.1714 204.806L77.9717 193.005L85.2224 191.312L85.1849 191.324ZM101.408 198.011C101.451 200.515 102.27 202.951 103.761 205.01C105.253 207.07 107.351 208.66 109.789 209.581C112.227 210.501 114.896 210.71 117.459 210.181C120.021 209.653 122.362 208.41 124.185 206.61C126.008 204.81 127.231 202.535 127.7 200.071C128.169 197.607 127.862 195.065 126.819 192.768C125.775 190.471 124.042 188.521 121.838 187.164C119.634 185.808 117.059 185.107 114.437 185.149C110.935 185.221 107.605 186.614 105.176 189.025C102.746 191.435 101.414 194.666 101.471 198.011H101.408Z" fill="#E0E0E0"/>
<path fill-rule="evenodd" clip-rule="evenodd" d="M369.796 160.795C369.982 160.075 370.267 159.381 370.645 158.733L369.472 157.004L371.967 154.56L373.802 155.633C374.47 155.249 375.187 154.948 375.936 154.739L376.373 152.725H379.942L380.454 154.715C381.207 154.9 381.933 155.176 382.613 155.538L384.422 154.417L386.981 156.801L385.87 158.566C386.268 159.204 386.579 159.89 386.793 160.604L388.902 161.021V164.431L386.818 164.919C386.623 165.639 386.334 166.332 385.957 166.982L387.143 168.71L384.647 171.094L382.8 170.022C382.134 170.407 381.416 170.704 380.666 170.904L380.229 172.918L376.66 172.978L376.148 170.975C375.394 170.798 374.668 170.525 373.989 170.165L372.18 171.285L369.621 168.901L370.745 167.137C370.341 166.501 370.03 165.815 369.821 165.098L367.712 164.681V161.272L369.809 160.783L369.796 160.795ZM374.488 162.726C374.501 163.451 374.738 164.156 375.171 164.751C375.603 165.347 376.211 165.806 376.917 166.071C377.623 166.337 378.396 166.396 379.137 166.241C379.878 166.086 380.555 165.725 381.081 165.202C381.607 164.68 381.958 164.02 382.091 163.306C382.224 162.593 382.132 161.857 381.827 161.194C381.522 160.53 381.017 159.968 380.377 159.579C379.737 159.189 378.991 158.99 378.232 159.007C377.727 159.018 377.229 159.124 376.767 159.319C376.305 159.515 375.887 159.796 375.539 160.146C375.191 160.496 374.919 160.908 374.739 161.359C374.559 161.811 374.473 162.291 374.488 162.774V162.726Z" fill="#E0E0E0"/>
<path fill-rule="evenodd" clip-rule="evenodd" d="M3.03146 196.104C3.31554 195.106 3.7351 194.149 4.27942 193.255L2.64459 190.871L6.05153 187.474L8.54747 188.952C9.46733 188.427 10.4584 188.026 11.4927 187.76L12.1042 184.97L17.096 184.887L17.8074 187.652C18.8498 187.929 19.8519 188.329 20.79 188.844L23.2859 187.295L26.8302 190.573L25.2827 192.957C25.8267 193.842 26.2463 194.792 26.5307 195.782L29.4509 196.366L29.5383 201.075L26.6305 201.754C26.3703 202.752 25.976 203.714 25.4574 204.615L27.0798 207L23.6479 210.385L21.1519 208.907C20.2277 209.431 19.2325 209.833 18.1942 210.099L17.5827 212.888L12.5909 212.972L11.8795 210.206C10.8341 209.954 9.82738 209.573 8.88442 209.074L6.38849 210.635L2.86922 207.286L4.4167 204.902C3.86542 204.02 3.4454 203.069 3.16873 202.076L0.24849 201.492L0.161133 196.784L3.05641 196.104H3.03146ZM9.54584 198.774C9.56313 199.772 9.88937 200.743 10.4834 201.564C11.0774 202.385 11.9127 203.02 12.8838 203.388C13.855 203.757 14.9186 203.842 15.9405 203.634C16.9624 203.426 17.8969 202.933 18.6261 202.218C19.3554 201.503 19.8467 200.598 20.0382 199.617C20.2297 198.636 20.1128 197.622 19.7023 196.705C19.2917 195.787 18.6059 195.006 17.7312 194.46C16.8565 193.914 15.8322 193.627 14.7873 193.637C14.0892 193.643 13.3993 193.781 12.7574 194.043C12.1154 194.305 11.5341 194.686 11.0469 195.163C10.5597 195.641 10.1762 196.206 9.91858 196.825C9.66097 197.445 9.53428 198.108 9.54584 198.774Z" fill="#EBEBEB"/>
<path fill-rule="evenodd" clip-rule="evenodd" d="M20.9524 300.065C21.4978 297.979 22.3374 295.974 23.4483 294.105L20.0663 289.158L27.1797 282.136L32.4586 285.212C34.3677 284.106 36.4247 283.252 38.5737 282.673L39.8216 276.891L50.0425 276.736L51.5151 282.47C53.697 282.995 55.7956 283.797 57.7549 284.854L62.9215 281.624L70.272 288.419L67.0647 293.461C68.2136 295.288 69.1032 297.252 69.7104 299.302L75.763 300.494L75.9378 310.257L69.9226 311.664C69.3729 313.748 68.5335 315.753 67.4266 317.624L70.8086 322.559L63.6952 329.581L58.4662 326.493C56.5542 327.594 54.498 328.448 52.3512 329.032L50.9784 334.838L40.7451 335.005L39.285 329.271C37.1034 328.744 35.005 327.943 33.0452 326.887L27.8661 330.117L20.5156 323.322L23.7353 318.268C22.573 316.447 21.6786 314.481 21.0772 312.427L15.0245 311.235L14.8623 301.46L20.865 300.065H20.9524ZM34.4304 305.596C34.4628 307.672 35.1391 309.691 36.3736 311.4C37.6081 313.108 39.3454 314.428 41.3656 315.192C43.3858 315.957 45.598 316.132 47.7223 315.695C49.8467 315.258 51.7876 314.229 53.2995 312.738C54.8114 311.248 55.8262 309.362 56.2156 307.32C56.605 305.278 56.3514 303.171 55.487 301.267C54.6226 299.362 53.1861 297.746 51.3594 296.622C49.5328 295.497 47.398 294.916 45.2253 294.951C43.7847 294.973 42.3627 295.266 41.0405 295.812C39.7183 296.359 38.5218 297.149 37.5194 298.138C36.5169 299.126 35.7282 300.294 35.1982 301.574C34.6682 302.853 34.4073 304.22 34.4304 305.596Z" fill="#F5F5F5"/>
<path fill-rule="evenodd" clip-rule="evenodd" d="M235.54 97.9492C235.775 97.0469 236.132 96.1775 236.6 95.3624L235.128 93.2167L238.235 90.1531L240.531 91.4882C241.363 91.0121 242.257 90.6434 243.19 90.3915L243.751 87.8762L248.194 87.8047L248.83 90.2961C249.778 90.518 250.689 90.8629 251.538 91.3213L253.785 89.9146L256.992 92.871L255.644 95.0763C256.148 95.868 256.534 96.7225 256.792 97.6154L259.426 98.1399L259.5 102.396L256.892 103.004C256.658 103.908 256.297 104.778 255.819 105.59L257.292 107.736L254.197 110.8L251.9 109.465C251.065 109.941 250.167 110.309 249.23 110.561L248.681 113.077L244.225 113.148L243.589 110.657C242.645 110.435 241.738 110.09 240.893 109.631L238.635 111.038L235.44 108.082L236.837 105.876C236.335 105.083 235.945 104.229 235.677 103.337L233.044 102.813L232.969 98.5571L235.589 97.9492H235.54ZM241.405 100.333C241.42 101.236 241.715 102.114 242.252 102.857C242.79 103.6 243.546 104.174 244.425 104.506C245.304 104.839 246.266 104.915 247.19 104.725C248.114 104.535 248.959 104.087 249.616 103.439C250.274 102.79 250.716 101.97 250.886 101.082C251.056 100.194 250.946 99.2772 250.571 98.4485C250.196 97.6197 249.571 96.9159 248.777 96.426C247.983 95.9361 247.055 95.6821 246.11 95.6962C245.48 95.707 244.86 95.8362 244.282 96.0764C243.705 96.3165 243.183 96.6629 242.747 97.0957C242.31 97.5285 241.966 98.0393 241.736 98.599C241.506 99.1586 241.393 99.756 241.405 100.357V100.333Z" fill="#F5F5F5"/>
<path d="M466.551 395.537C472.167 392.772 478.769 392.414 484.996 393.392C488.353 393.928 491.835 394.882 494.119 397.278C496.402 399.674 496.827 403.906 494.206 405.968C492.525 407.066 490.491 407.56 488.465 407.363C483.586 407.363 478.17 406.492 474.276 409.294C472.055 410.891 470.532 413.55 467.911 414.336C466.582 414.638 465.185 414.515 463.936 413.985C462.687 413.455 461.655 412.548 460.998 411.404C459.733 409.069 459.456 406.359 460.224 403.834C460.539 402.079 461.273 400.417 462.371 398.978C463.468 397.539 464.899 396.362 466.551 395.537Z" fill="#EBEBEB"/>
<path d="M453.647 371.791C457.079 376.476 463.743 374.927 466.838 372.066C469.933 369.205 471.231 365.068 472.429 361.122C475.149 352.098 477.883 342.621 475.861 333.431C475.364 330.641 474.068 328.038 472.117 325.909C471.138 324.855 469.885 324.066 468.485 323.622C467.085 323.179 465.587 323.096 464.142 323.381C460.785 324.228 458.689 327.375 457.179 330.367C452.747 339.206 450.432 348.878 450.402 358.679C450.402 363.244 450.951 368.024 453.647 371.791Z" fill="#EBEBEB"/>
<path d="M444.225 378.55C447.969 374.319 448.655 368.156 446.995 362.863C445.335 357.57 441.592 353.076 437.274 349.404C432.177 345.075 426.241 341.742 419.802 339.593C417.321 338.634 414.651 338.199 411.977 338.318C410.641 338.39 409.343 338.774 408.199 339.437C407.054 340.1 406.098 341.022 405.413 342.121C403.579 345.458 405.326 349.5 407.235 352.849C410.607 358.647 414.45 364.183 418.729 369.407C422.148 373.627 426.079 377.752 431.296 379.695C436.512 381.638 441.953 381.387 444.712 377.919" fill="#EBEBEB"/>
<path d="M453.41 442.456C453.593 441.758 453.698 441.042 453.722 440.322C453.884 438.773 454.071 436.83 454.308 434.517C454.614 431.66 455.072 428.819 455.681 426.006C456.477 422.574 457.562 419.209 458.926 415.945C460.257 412.69 462.064 409.632 464.292 406.861C466.104 404.599 468.424 402.754 471.081 401.461C472.886 400.613 474.819 400.038 476.809 399.756C477.558 399.731 478.303 399.631 479.03 399.458C478.28 399.373 477.522 399.373 476.772 399.458C474.707 399.61 472.687 400.11 470.806 400.937C468.009 402.198 465.557 404.063 463.643 406.384C461.307 409.191 459.427 412.317 458.065 415.659C456.687 418.97 455.61 422.387 454.845 425.875C454.274 428.723 453.878 431.601 453.659 434.493C453.472 436.961 453.397 438.964 453.36 440.334C453.302 441.042 453.319 441.752 453.41 442.456Z" fill="#E0E0E0"/>
<path d="M453.834 437.987C453.871 437.658 453.871 437.327 453.834 436.998V434.173C453.834 431.729 453.834 428.212 453.959 423.802C454.196 415.052 454.982 405.623 456.454 392.343C457.902 379.85 459.836 365.307 461.883 355.854C462.32 353.708 462.757 351.777 463.131 350.084C463.505 348.391 463.867 346.913 464.204 345.733C464.541 344.553 464.704 343.706 464.891 342.991C464.997 342.675 465.056 342.346 465.065 342.014C464.916 342.311 464.798 342.623 464.716 342.943L463.855 345.65C463.468 346.842 463.081 348.272 462.607 349.965C462.133 351.658 461.659 353.541 461.184 355.722C458.651 366.902 456.748 378.203 455.481 389.577C453.946 402.893 453.26 415.016 453.197 423.79C453.197 428.176 453.197 431.729 453.36 434.184C453.434 435.377 453.497 436.259 453.547 437.01C453.595 437.346 453.692 437.675 453.834 437.987Z" fill="#E0E0E0"/>
<path d="M453.896 414.61C453.975 413.626 453.975 412.638 453.896 411.654C453.784 409.758 453.51 407.028 452.948 403.667C452.265 399.75 451.348 395.873 450.203 392.056C448.879 387.344 447.177 382.737 445.111 378.276C441.568 370.054 436.494 362.513 430.135 356.02C429.031 354.91 427.856 353.867 426.616 352.896C426.067 352.455 425.593 352.026 425.106 351.704L423.746 350.798C422.921 350.205 422.049 349.675 421.137 349.213C421 349.404 424.819 351.597 429.661 356.473C435.808 363.017 440.742 370.516 444.25 378.645C446.274 383.081 447.988 387.641 449.379 392.294C450.714 396.574 451.6 400.508 452.274 403.822C452.948 407.136 453.273 409.853 453.522 411.737C453.563 412.703 453.688 413.664 453.896 414.61Z" fill="#E0E0E0"/>
<path d="M430.235 455.844L432.694 487.934H475.849L478.307 455.844H430.235Z" fill="#E0E0E0"/>
<path d="M483.449 443.195H426.067V455.843H483.449V443.195Z" fill="#E0E0E0"/>
<path d="M426.067 486.707V490.224H428.763H482.5V486.707H426.067Z" fill="#EBEBEB"/>
<path d="M431.408 496.386L428.763 490.223H480.453L477.371 496.386H431.408Z" fill="#E0E0E0"/>
<path d="M477.496 466.334C477.496 466.334 477.496 466.441 477.296 466.632L476.66 467.442L474.164 470.518L474.051 470.661L473.952 470.518L467.799 462.388H468.149L462.071 470.613L461.871 470.875L461.659 470.625L454.396 462.388H454.82L454.421 462.865L447.969 470.589L447.757 470.851L447.557 470.577L441.467 462.388H441.829C438.821 465.642 436.288 468.42 434.341 470.542L434.216 470.685L434.104 470.518L431.758 466.751L431.159 465.749C431.084 465.637 431.021 465.517 430.972 465.392C431.069 465.491 431.157 465.599 431.234 465.714L431.895 466.679L434.391 470.375H434.104C436.013 468.217 438.522 465.416 441.467 462.114L441.654 461.911L441.829 462.126L447.969 470.315H447.557L453.984 462.579L454.384 462.102L454.583 461.863L454.795 462.102L461.996 470.315H461.559L467.712 462.137L467.887 461.899L468.061 462.137L474.114 470.387H473.889C474.987 469.123 475.861 468.122 476.51 467.395L477.209 466.62L477.496 466.334Z" fill="#F5F5F5"/>
<path d="M478.905 455.629C478.905 455.772 468.086 455.891 454.745 455.891C441.404 455.891 430.597 455.772 430.597 455.629C430.597 455.486 441.404 455.379 454.745 455.379C468.086 455.379 478.905 455.486 478.905 455.629Z" fill="#F5F5F5"/>
<path d="M481.089 490.557C481.089 490.7 469.334 490.819 454.882 490.819C440.431 490.819 428.675 490.7 428.675 490.557C428.675 490.414 440.431 490.307 454.882 490.307C469.334 490.307 481.089 490.426 481.089 490.557Z" fill="#F5F5F5"/>
<path d="M26.543 131.196C27.2863 131.138 28.0335 131.138 28.7768 131.196C29.5006 131.196 30.3867 131.196 31.3976 131.268C32.4084 131.339 33.594 131.375 34.8669 131.53C37.8736 131.819 40.8609 132.268 43.8148 132.877C47.4263 133.628 50.9857 134.591 54.4725 135.762C57.9398 136.996 61.3241 138.433 64.6059 140.065C67.2776 141.415 69.8652 142.912 72.3558 144.548C73.4415 145.215 74.3525 145.906 75.1887 146.479C76.0248 147.051 76.6987 147.587 77.2478 148.04C77.8404 148.474 78.3993 148.948 78.9201 149.459C78.2745 149.112 77.6608 148.713 77.0856 148.267C76.5115 147.85 75.8376 147.349 74.964 146.801C74.0905 146.252 73.1919 145.608 72.1062 144.941C69.9722 143.594 67.3265 142.116 64.3314 140.614C61.0577 139.02 57.691 137.607 54.2478 136.382C50.7906 135.198 47.2656 134.203 43.69 133.402C40.7601 132.768 37.7987 132.274 34.817 131.924C33.569 131.745 32.3959 131.685 31.3726 131.578C30.3493 131.471 29.4882 131.435 28.7643 131.399C28.0195 131.387 27.2767 131.319 26.543 131.196Z" fill="#EBEBEB"/>
<path d="M3.41797 264.004C3.62012 263.798 3.84621 263.614 4.09187 263.456L6.08862 262.013C6.94971 261.382 8.03544 260.619 9.33333 259.808C10.6312 258.997 12.0664 258.02 13.7511 257.078C15.4359 256.136 17.233 255.04 19.2671 254.015C21.3013 252.989 23.4728 251.917 25.794 250.832C30.8708 248.571 36.0889 246.613 41.4185 244.967C46.7698 243.385 52.2168 242.115 57.7295 241.164C60.2254 240.783 62.7213 240.377 64.9926 240.175C67.2639 239.972 69.3979 239.746 71.3448 239.638C73.2916 239.531 75.0887 239.483 76.6112 239.448C78.1337 239.412 79.494 239.448 80.5797 239.448L83.0756 239.531C83.3687 239.524 83.6616 239.548 83.9492 239.602C83.6588 239.631 83.3661 239.631 83.0756 239.602H80.5797C79.494 239.602 78.1587 239.602 76.6112 239.698C75.0637 239.793 73.3165 239.793 71.3822 239.984C69.4478 240.175 67.3138 240.282 65.055 240.592C62.7962 240.902 60.3751 241.236 57.8418 241.629C52.36 242.605 46.9429 243.886 41.6182 245.467C36.3026 247.152 31.094 249.13 26.0186 251.392C23.7099 252.465 21.501 253.454 19.5042 254.515C17.5075 255.576 15.6356 256.554 13.9633 257.495C12.291 258.437 10.8184 259.367 9.50804 260.154C8.19768 260.941 7.09947 261.656 6.21341 262.252L4.14179 263.611C3.91056 263.758 3.66868 263.89 3.41797 264.004Z" fill="#EBEBEB"/>
<path d="M93.1094 328.078C93.1098 327.861 93.1392 327.645 93.1967 327.434L93.5711 325.599C93.7334 324.812 93.958 323.846 94.2575 322.738C94.557 321.629 94.8565 320.354 95.2933 318.959C96.1045 316.169 97.2152 312.903 98.6254 309.315C100.036 305.727 101.783 301.876 103.842 297.919C105.901 293.961 108.135 290.337 110.269 287.095C112.403 283.852 114.512 281.063 116.371 278.75C117.27 277.558 118.156 276.593 118.867 275.699C119.579 274.805 120.29 274.065 120.864 273.458L122.112 272.075C122.424 271.765 122.586 271.61 122.611 271.622C122.503 271.816 122.368 271.996 122.212 272.158C121.9 272.552 121.488 273.028 120.964 273.613C120.44 274.197 119.778 275.007 119.055 275.925C118.331 276.843 117.47 277.844 116.559 279.024C114.762 281.325 112.74 284.162 110.606 287.369C108.472 290.576 106.325 294.235 104.254 298.169C102.182 302.103 100.51 305.941 98.9998 309.482C97.4897 313.022 96.4165 316.289 95.5554 319.018C95.0936 320.401 94.7567 321.665 94.4322 322.762C94.1077 323.858 93.8457 324.812 93.646 325.599C93.4463 326.385 93.2841 326.922 93.1468 327.399C93.1604 327.626 93.1478 327.854 93.1094 328.078Z" fill="#EBEBEB"/>
<path d="M262.658 0.878906C262.519 1.13073 262.356 1.37011 262.171 1.59415L260.636 3.60875C259.975 4.46704 259.176 5.52798 258.303 6.79157C257.429 8.05516 256.368 9.46181 255.32 11.083C254.272 12.7042 253.149 14.4566 251.901 16.3997C250.653 18.3427 249.492 20.4408 248.219 22.6461C245.723 27.1164 243.227 32.1827 240.943 37.5112C238.66 42.8398 236.8 48.1683 235.29 53.0081C234.591 55.3923 233.88 57.7764 233.356 59.934C232.832 62.0917 232.332 64.154 231.921 66.0255C231.509 67.8971 231.209 69.6017 230.922 71.0799C230.635 72.5581 230.423 73.8693 230.273 74.9303C230.124 75.9912 229.974 76.7422 229.874 77.3144C229.844 77.5983 229.781 77.8781 229.687 78.1489C229.659 77.8634 229.659 77.5761 229.687 77.2906C229.762 76.6707 229.849 75.8601 229.974 74.9064C230.099 73.9528 230.248 72.5223 230.523 71.0441C230.797 69.566 231.01 67.8255 231.421 65.954C231.833 64.0824 232.22 62.0082 232.782 59.8268C233.343 57.6453 234.03 55.3088 234.666 52.8651C236.151 48.0014 237.998 42.7086 240.282 37.2847C242.566 31.8608 245.149 26.8541 247.645 22.3958C248.893 20.1785 250.141 18.0686 251.389 16.1493C252.637 14.2301 253.785 12.4539 254.883 10.8565C255.981 9.25916 257.042 7.85252 257.953 6.61277C258.864 5.37301 259.688 4.31207 260.449 3.47762C261.21 2.64317 261.635 2.0233 262.047 1.53455C262.22 1.29182 262.426 1.07145 262.658 0.878906Z" fill="#EBEBEB"/>
<path d="M375.013 124.723C374.769 124.792 374.518 124.836 374.264 124.854L372.105 125.128L370.545 125.307C369.971 125.391 369.36 125.522 368.711 125.629C367.388 125.891 365.878 126.094 364.256 126.547L361.76 127.179C360.861 127.405 359.963 127.727 359.027 128.013C357.117 128.562 355.17 129.372 353.111 130.171C344.22 133.877 336.202 139.257 329.537 145.99C328.052 147.575 326.592 149.053 325.419 150.579C324.82 151.33 324.171 152.021 323.659 152.737L322.112 154.835C321.113 156.134 320.402 157.433 319.703 158.518C319.366 159.079 319.029 159.579 318.755 160.068L318.056 161.403L317.058 163.251C316.953 163.477 316.819 163.689 316.658 163.883C316.727 163.648 316.819 163.421 316.933 163.203C317.17 162.702 317.457 162.011 317.831 161.296L318.48 159.925C318.742 159.436 319.067 158.924 319.391 158.351C320.102 157.059 320.881 155.802 321.725 154.584L323.198 152.463C323.709 151.723 324.333 151.02 324.932 150.257C326.105 148.708 327.553 147.206 329.038 145.596C335.711 138.754 343.809 133.321 352.812 129.646C354.896 128.86 356.868 128.061 358.79 127.524C359.75 127.25 360.661 126.928 361.56 126.714L364.143 126.118C365.629 125.768 367.133 125.493 368.648 125.295C369.31 125.188 369.896 125.081 370.508 125.021L372.08 124.89L374.252 124.735C374.504 124.697 374.76 124.693 375.013 124.723Z" fill="#EBEBEB"/>
<path d="M466.776 195.662L466.451 195.567L465.515 195.269L461.934 194.077L459.35 193.171C458.402 192.861 457.354 192.563 456.23 192.217C453.997 191.55 451.476 190.703 448.605 190.012L444.138 188.82C442.578 188.414 440.93 188.104 439.246 187.723C435.876 186.924 432.207 186.34 428.376 185.673C411.646 183.005 394.615 182.507 377.746 184.195C373.877 184.636 370.183 185.005 366.764 185.601C365.054 185.887 363.394 186.102 361.772 186.412L357.242 187.306C354.334 187.83 351.763 188.498 349.479 189.07C348.344 189.344 347.283 189.583 346.322 189.833L343.676 190.584L340.032 191.609L339.071 191.86C338.96 191.874 338.846 191.874 338.734 191.86L339.046 191.74L339.982 191.43L343.601 190.238L346.235 189.44C347.196 189.165 348.256 188.903 349.392 188.605C351.663 188.045 354.234 187.318 357.142 186.757L361.684 185.816C363.257 185.494 364.929 185.267 366.676 184.981C370.108 184.349 373.802 183.968 377.683 183.503C394.605 181.748 411.699 182.25 428.476 184.993C432.319 185.685 435.963 186.281 439.358 187.103C441.055 187.497 442.702 187.818 444.262 188.295L448.73 189.487C451.6 190.214 454.109 191.097 456.343 191.788C457.466 192.146 458.502 192.467 459.45 192.801L462.021 193.755L465.565 195.09L466.476 195.46C466.676 195.603 466.788 195.65 466.776 195.662Z" fill="#EBEBEB"/>
</svg>
